<svg width="24" height="24" viewBox="0 0 24 24" fill="none" xmlns="http://www.w3.org/2000/svg">
<path fill-rule="evenodd" clip-rule="evenodd" d="M8.64124 8.64124C8.93414 8.34835 9.40901 8.34835 9.7019 8.64124L12 10.9393L14.2981 8.64124C14.591 8.34835 15.0659 8.34835 15.3588 8.64124C15.6517 8.93414 15.6517 9.40901 15.3588 9.7019L13.0607 12L15.3588 14.2981C15.6517 14.591 15.6517 15.0659 15.3588 15.3588C15.0659 15.6517 14.591 15.6517 14.2981 15.3588L12 13.0607L9.7019 15.3588C9.40901 15.6517 8.93414 15.6517 8.64124 15.3588C8.34835 15.0659 8.34835 14.591 8.64124 14.2981L10.9393 12L8.64124 9.7019C8.34835 9.40901 8.34835 8.93414 8.64124 8.64124Z" fill="#1E2027"/>
<path fill-rule="evenodd" clip-rule="evenodd" d="M6.16637 6.16637C2.94454 9.38819 2.94454 14.6118 6.16637 17.8336C9.38819 21.0555 14.6118 21.0555 17.8336 17.8336C21.0555 14.6118 21.0555 9.38819 17.8336 6.16637C14.6118 2.94454 9.38819 2.94454 6.16637 6.16637ZM5.10571 18.8943C1.2981 15.0867 1.2981 8.91332 5.10571 5.10571C8.91332 1.2981 15.0867 1.2981 18.8943 5.10571C22.7019 8.91332 22.7019 15.0867 18.8943 18.8943C15.0867 22.7019 8.91332 22.7019 5.10571 18.8943Z" fill="#1E2027"/>
<path fill-rule="evenodd" clip-rule="evenodd" d="M8.00035 8.00013C8.34915 7.65133 8.91467 7.65133 9.26347 8.00013L12.0002 10.7369L14.737 8.00013C15.0858 7.65133 15.6513 7.65133 16.0001 8.00013C16.3489 8.34893 16.3489 8.91445 16.0001 9.26325L13.2633 12L16.0001 14.7368C16.3489 15.0856 16.3489 15.6511 16.0001 15.9999C15.6513 16.3487 15.0858 16.3487 14.737 15.9999L12.0002 13.2631L9.26347 15.9999C8.91467 16.3487 8.34915 16.3487 8.00035 15.9999C7.65155 15.6511 7.65155 15.0856 8.00035 14.7368L10.7371 12L8.00035 9.26325C7.65155 8.91445 7.65155 8.34893 8.00035 8.00013Z" fill="#1E2027"/>
</svg>
