<svg width="24" height="24" viewBox="0 0 24 24" fill="none" xmlns="http://www.w3.org/2000/svg">
<path fill-rule="evenodd" clip-rule="evenodd" d="M5.10569 4.00086L4.1889 4.92475C3.76711 5.3498 3.35322 5.80575 3.15948 6.37189C2.81375 7.38215 3.02162 8.46226 3.86646 10.225C5.20505 13.018 7.09668 15.4721 8.2202 16.487L8.22171 16.4852C9.39177 17.5863 11.7087 19.1948 14.2702 20.2954C16.0114 21.0436 17.0613 21.1869 18.0033 20.7683C18.5513 20.5248 18.9602 20.0605 19.3385 19.5951L20.1807 18.5586C20.5153 18.147 20.8467 17.7109 20.9514 17.1909C21.0747 16.5788 20.9575 16.0354 20.6838 15.8222L18.349 13.989C17.4082 13.2504 15.9378 13.1541 15.4189 14.2318C14.8654 15.3813 13.1811 14.5352 12.2586 13.6539L11.3027 12.7407L11.2991 12.7445L10.4125 11.8737C9.48158 10.9593 8.49398 9.2993 9.61192 8.61427C10.6462 7.9805 10.4344 6.5066 9.65826 5.58175L7.71863 3.27061C7.50031 3.00843 6.99045 2.92238 6.42767 3.07631C5.90146 3.22023 5.49057 3.613 5.10569 4.00086Z" fill="black"/>
</svg>
