<svg width="24" height="24" viewBox="0 0 24 24" fill="none" xmlns="http://www.w3.org/2000/svg">
<path fill-rule="evenodd" clip-rule="evenodd" d="M6.19355 10.5484C5.39184 10.5484 4.74194 11.1983 4.74194 12C4.74194 12.8017 5.39184 13.4516 6.19355 13.4516C6.99525 13.4516 7.64516 12.8017 7.64516 12C7.64516 11.1983 6.99525 10.5484 6.19355 10.5484ZM3 12C3 10.2363 4.4298 8.80645 6.19355 8.80645C7.9573 8.80645 9.3871 10.2363 9.3871 12C9.3871 13.7637 7.9573 15.1935 6.19355 15.1935C4.4298 15.1935 3 13.7637 3 12Z" fill="black"/>
<path fill-rule="evenodd" clip-rule="evenodd" d="M17.8065 4.74194C17.0047 4.74194 16.3548 5.39184 16.3548 6.19355C16.3548 6.99525 17.0047 7.64516 17.8065 7.64516C18.6082 7.64516 19.2581 6.99525 19.2581 6.19355C19.2581 5.39184 18.6082 4.74194 17.8065 4.74194ZM14.6129 6.19355C14.6129 4.4298 16.0427 3 17.8065 3C19.5702 3 21 4.4298 21 6.19355C21 7.9573 19.5702 9.3871 17.8065 9.3871C16.0427 9.3871 14.6129 7.9573 14.6129 6.19355Z" fill="black"/>
<path fill-rule="evenodd" clip-rule="evenodd" d="M17.8065 16.3548C17.0047 16.3548 16.3548 17.0047 16.3548 17.8065C16.3548 18.6082 17.0047 19.2581 17.8065 19.2581C18.6082 19.2581 19.2581 18.6082 19.2581 17.8065C19.2581 17.0047 18.6082 16.3548 17.8065 16.3548ZM14.6129 17.8065C14.6129 16.0427 16.0427 14.6129 17.8065 14.6129C19.5702 14.6129 21 16.0427 21 17.8065C21 19.5702 19.5702 21 17.8065 21C16.0427 21 14.6129 19.5702 14.6129 17.8065Z" fill="black"/>
<path fill-rule="evenodd" clip-rule="evenodd" d="M16.2629 6.96533C16.478 7.39557 16.3036 7.91874 15.8734 8.13386L8.90564 11.6177C8.4754 11.8328 7.95223 11.6585 7.73711 11.2282C7.52199 10.798 7.69638 10.2748 8.12662 10.0597L15.0944 6.57582C15.5246 6.3607 16.0478 6.53509 16.2629 6.96533ZM7.73711 12.7718C7.95223 12.3415 8.4754 12.1672 8.90564 12.3823L15.8734 15.8661C16.3036 16.0813 16.478 16.6044 16.2629 17.0347C16.0478 17.4649 15.5246 17.6393 15.0944 17.4242L8.12662 13.9403C7.69638 13.7252 7.52199 13.202 7.73711 12.7718Z" fill="black"/>
</svg>
