<svg width="24" height="24" viewBox="0 0 24 24" fill="none" xmlns="http://www.w3.org/2000/svg">
<path fill-rule="evenodd" clip-rule="evenodd" d="M9 2.75C9.41421 2.75 9.75 3.08579 9.75 3.5V3.75H14.25V3.5C14.25 3.08579 14.5858 2.75 15 2.75C15.4142 2.75 15.75 3.08579 15.75 3.5V3.79847C18.5713 4.16598 20.75 6.57855 20.75 9.5V15.5C20.75 18.6756 18.1756 21.25 15 21.25H9C5.82436 21.25 3.25 18.6756 3.25 15.5V9.5C3.25 6.57855 5.42873 4.16598 8.25 3.79847V3.5C8.25 3.08579 8.58579 2.75 9 2.75ZM8.25 5.31597C6.26049 5.6702 4.75 7.4087 4.75 9.5V15.5C4.75 17.8472 6.65279 19.75 9 19.75H15C17.3472 19.75 19.25 17.8472 19.25 15.5V9.5C19.25 7.4087 17.7395 5.6702 15.75 5.31597V6.5C15.75 6.91421 15.4142 7.25 15 7.25C14.5858 7.25 14.25 6.91421 14.25 6.5V5.25H9.75V6.5C9.75 6.91421 9.41421 7.25 9 7.25C8.58579 7.25 8.25 6.91421 8.25 6.5V5.31597Z" fill="#1E2027"/>
<path fill-rule="evenodd" clip-rule="evenodd" d="M9 2.75C9.41421 2.75 9.75 3.08579 9.75 3.5V3.75H14.25V3.5C14.25 3.08579 14.5858 2.75 15 2.75C15.4142 2.75 15.75 3.08579 15.75 3.5V3.79847C18.5713 4.16598 20.75 6.57855 20.75 9.5V15.5C20.75 18.6756 18.1756 21.25 15 21.25H9C5.82436 21.25 3.25 18.6756 3.25 15.5V9.5C3.25 6.57855 5.42873 4.16598 8.25 3.79847V3.5C8.25 3.08579 8.58579 2.75 9 2.75ZM8.25 5.31597C6.26049 5.6702 4.75 7.4087 4.75 9.5V15.5C4.75 17.8472 6.65279 19.75 9 19.75H15C17.3472 19.75 19.25 17.8472 19.25 15.5V9.5C19.25 7.4087 17.7395 5.6702 15.75 5.31597V6.5C15.75 6.91421 15.4142 7.25 15 7.25C14.5858 7.25 14.25 6.91421 14.25 6.5V5.25H9.75V6.5C9.75 6.91421 9.41421 7.25 9 7.25C8.58579 7.25 8.25 6.91421 8.25 6.5V5.31597Z" fill="black" fill-opacity="0.2"/>
<path fill-rule="evenodd" clip-rule="evenodd" d="M8.25 12.5C8.25 12.0858 8.58579 11.75 9 11.75H15C15.4142 11.75 15.75 12.0858 15.75 12.5C15.75 12.9142 15.4142 13.25 15 13.25H9C8.58579 13.25 8.25 12.9142 8.25 12.5Z" fill="black"/>
<path fill-rule="evenodd" clip-rule="evenodd" d="M12 8.75C12.4142 8.75 12.75 9.08579 12.75 9.5L12.75 15.5C12.75 15.9142 12.4142 16.25 12 16.25C11.5858 16.25 11.25 15.9142 11.25 15.5L11.25 9.5C11.25 9.08579 11.5858 8.75 12 8.75Z" fill="black"/>
</svg>
