<svg width="24" height="24" viewBox="0 0 24 24" fill="none" xmlns="http://www.w3.org/2000/svg">
<path fill-rule="evenodd" clip-rule="evenodd" d="M7.08612 3.7585C6.98139 3.74219 6.82083 3.7461 6.6247 3.79974C6.31882 3.8834 6.03849 4.12478 5.63723 4.52915L4.72043 5.45304C4.29762 5.87912 4.00061 6.22795 3.86824 6.61473C3.62307 7.33116 3.71512 8.17569 4.54196 9.90091C5.83036 12.5892 7.63703 14.9315 8.68082 15.8928C8.69947 15.9073 8.7175 15.9227 8.73485 15.9391C9.83707 16.9763 12.0791 18.5379 14.5655 19.6063C16.2696 20.3386 17.0598 20.3664 17.6979 20.0829C18.0634 19.9205 18.373 19.5928 18.7556 19.1221L19.5979 18.0856C19.941 17.6633 20.1517 17.3588 20.2154 17.0428C20.2604 16.8193 20.256 16.6321 20.2304 16.5049C20.2177 16.4418 20.2033 16.4079 20.1961 16.3935L17.885 14.5789C17.5396 14.3077 17.1066 14.167 16.7499 14.1789C16.4161 14.19 16.2072 14.3217 16.0938 14.5571C15.8645 15.0335 15.485 15.3459 15.0188 15.4737C14.5856 15.5924 14.1426 15.535 13.7648 15.4239C13.0126 15.2029 12.2599 14.6932 11.7397 14.1962L10.848 13.3443C10.8216 13.3245 10.7965 13.3029 10.7727 13.2796L9.88616 12.4088C9.37122 11.903 8.81221 11.1681 8.53818 10.4142C8.40051 10.0355 8.31267 9.59137 8.39656 9.14534C8.48636 8.6679 8.76169 8.25514 9.21922 7.97478C9.45522 7.83017 9.57679 7.59193 9.56367 7.23468C9.5498 6.85665 9.37625 6.41339 9.08293 6.06389L7.16415 3.7776C7.15124 3.77257 7.12661 3.7648 7.08612 3.7585ZM11.7601 12.1469C11.7807 12.1628 11.8007 12.18 11.82 12.1984L12.7759 13.1116C13.1782 13.4959 13.7289 13.8499 14.1878 13.9848C14.4156 14.0518 14.5551 14.0454 14.6223 14.027C14.6563 14.0177 14.695 14.0048 14.7423 13.9064C15.1479 13.0642 15.9336 12.7052 16.7 12.6797C17.4434 12.655 18.216 12.9317 18.8113 13.3991L21.1438 15.2305C21.1443 15.2309 21.1448 15.2313 21.1453 15.2316C21.4761 15.49 21.6336 15.8745 21.7009 16.209C21.7715 16.5599 21.7641 16.9505 21.6858 17.339C21.54 18.0631 21.0879 18.6306 20.7619 19.0316L19.9197 20.0681C19.5458 20.5281 19.0375 21.1291 18.307 21.4537C17.0611 22.0073 15.7516 21.7486 13.9733 20.9845C11.3684 19.8652 9.00231 18.236 7.75201 17.0736C7.73994 17.064 7.72813 17.054 7.71661 17.0436C6.50645 15.9504 4.56091 13.4111 3.18929 10.5492C2.32644 8.74884 2.00277 7.43314 2.44905 6.12906C2.70417 5.38356 3.23494 4.82048 3.65569 4.39647L4.57249 3.47258C4.94098 3.10124 5.48242 2.55707 6.22897 2.35288C6.59563 2.2526 6.97139 2.22257 7.31686 2.27635C7.65089 2.32835 8.02817 2.47219 8.29298 2.7893C8.29336 2.78976 8.29375 2.79023 8.29414 2.79069L10.2319 5.09961C10.7148 5.67496 11.0352 6.43108 11.0627 7.17966C11.0909 7.94901 10.8012 8.76461 10.0029 9.25376C9.90151 9.31591 9.88106 9.36755 9.87071 9.4226C9.85445 9.50906 9.86208 9.66557 9.94793 9.90176C10.121 10.3778 10.5212 10.93 10.9373 11.3387L11.7601 12.1469Z" fill="black"/>
</svg>
