<svg width="24" height="24" viewBox="0 0 24 24" fill="none" xmlns="http://www.w3.org/2000/svg">
<path fill-rule="evenodd" clip-rule="evenodd" d="M9 2.75C9.41421 2.75 9.75 3.08579 9.75 3.5V3.75H14.25V3.5C14.25 3.08579 14.5858 2.75 15 2.75C15.4142 2.75 15.75 3.08579 15.75 3.5V3.79847C18.5713 4.16598 20.75 6.57855 20.75 9.5V15.5C20.75 18.6756 18.1756 21.25 15 21.25H9C5.82436 21.25 3.25 18.6756 3.25 15.5V9.5C3.25 6.57855 5.42873 4.16598 8.25 3.79847V3.5C8.25 3.08579 8.58579 2.75 9 2.75ZM8.25 5.31597C6.26049 5.6702 4.75 7.4087 4.75 9.5V15.5C4.75 17.8472 6.65279 19.75 9 19.75H15C17.3472 19.75 19.25 17.8472 19.25 15.5V9.5C19.25 7.4087 17.7395 5.6702 15.75 5.31597V6.5C15.75 6.91421 15.4142 7.25 15 7.25C14.5858 7.25 14.25 6.91421 14.25 6.5V5.25H9.75V6.5C9.75 6.91421 9.41421 7.25 9 7.25C8.58579 7.25 8.25 6.91421 8.25 6.5V5.31597ZM16.5087 8.9489C16.8131 9.22985 16.8321 9.70434 16.5511 10.0087L11.4384 15.5474C10.8936 16.1377 9.94148 16.0682 9.48809 15.4051L7.38089 12.3233C7.14709 11.9814 7.23475 11.5147 7.57668 11.2809C7.9186 11.0471 8.38532 11.1348 8.61911 11.4767L10.5491 14.2994L15.4489 8.99129C15.7298 8.68692 16.2043 8.66794 16.5087 8.9489Z" fill="#1E2027"/>
</svg>
