<svg width="24" height="24" viewBox="0 0 24 24" fill="none" xmlns="http://www.w3.org/2000/svg">
<g clip-path="url(#clip0_1557_830)">
<path fill-rule="evenodd" clip-rule="evenodd" d="M16.8618 8.5H7.13883C6.6021 8.5 6.16699 8.9351 6.16699 9.47183V17.25C6.16699 18.8608 7.47283 20.1667 9.08366 20.1667H14.917C15.6905 20.1667 16.4324 19.8594 16.9794 19.3124C17.5264 18.7654 17.8337 18.0235 17.8337 17.25V9.47183C17.8337 8.9351 17.3986 8.5 16.8618 8.5Z" stroke="#BBBCBE" stroke-width="1.5" stroke-linecap="round" stroke-linejoin="round"/>
<path fill-rule="evenodd" clip-rule="evenodd" d="M15.5 6.16667L14.6553 4.4785C14.4579 4.08332 14.0541 3.83357 13.6123 3.83334H10.3877C9.94589 3.83357 9.54214 4.08332 9.34467 4.4785L8.5 6.16667H15.5Z" stroke="#BBBCBE" stroke-width="1.5" stroke-linecap="round" stroke-linejoin="round"/>
<path d="M10.8055 12.3885C10.8055 11.9743 10.4697 11.6385 10.0555 11.6385C9.64128 11.6385 9.30549 11.9743 9.30549 12.3885H10.8055ZM9.30549 16.277C9.30549 16.6912 9.64128 17.027 10.0555 17.027C10.4697 17.027 10.8055 16.6912 10.8055 16.277H9.30549ZM14.6952 12.3885C14.6952 11.9743 14.3594 11.6385 13.9452 11.6385C13.5309 11.6385 13.1952 11.9743 13.1952 12.3885H14.6952ZM13.1952 16.277C13.1952 16.6912 13.5309 17.027 13.9452 17.027C14.3594 17.027 14.6952 16.6912 14.6952 16.277H13.1952ZM15.5003 5.41667C15.0861 5.41667 14.7503 5.75246 14.7503 6.16667C14.7503 6.58089 15.0861 6.91667 15.5003 6.91667V5.41667ZM17.8337 6.91667C18.2479 6.91667 18.5837 6.58089 18.5837 6.16667C18.5837 5.75246 18.2479 5.41667 17.8337 5.41667V6.91667ZM8.50033 6.91667C8.91454 6.91667 9.25033 6.58089 9.25033 6.16667C9.25033 5.75246 8.91454 5.41667 8.50033 5.41667V6.91667ZM6.16699 5.41667C5.75278 5.41667 5.41699 5.75246 5.41699 6.16667C5.41699 6.58089 5.75278 6.91667 6.16699 6.91667V5.41667ZM9.30549 12.3885V16.277H10.8055V12.3885H9.30549ZM13.1952 12.3885V16.277H14.6952V12.3885H13.1952ZM15.5003 6.91667H17.8337V5.41667H15.5003V6.91667ZM8.50033 5.41667H6.16699V6.91667H8.50033V5.41667Z" fill="#BBBCBE"/>
</g>
<defs>
<clipPath id="clip0_1557_830">
<rect width="24" height="24" fill="white"/>
</clipPath>
</defs>
</svg>
