<svg width="25" height="24" viewBox="0 0 25 24" fill="none" xmlns="http://www.w3.org/2000/svg">
<path fill-rule="evenodd" clip-rule="evenodd" d="M10.2163 12.0129C10.2161 10.9225 10.9862 9.98374 12.0556 9.7708C13.1251 9.55785 14.196 10.13 14.6135 11.1374C15.0309 12.1447 14.6787 13.3067 13.7721 13.9127C12.8656 14.5186 11.6572 14.3998 10.886 13.6289C10.4573 13.2003 10.2164 12.6191 10.2163 12.0129Z" stroke="#1E2027" stroke-width="1.4" stroke-linecap="round" stroke-linejoin="round"/>
<path fill-rule="evenodd" clip-rule="evenodd" d="M10.8678 4.53305C10.8521 3.93909 11.16 3.3834 11.6719 3.0818C12.1839 2.78019 12.8191 2.78019 13.3311 3.0818C13.843 3.3834 14.1509 3.93909 14.1352 4.53305V5.35245C15.3753 5.65627 16.5058 6.30069 17.3991 7.21297L18.0493 6.83127C18.4251 6.61129 18.8737 6.55202 19.2937 6.66686C19.7137 6.7817 20.0697 7.06096 20.2813 7.44154C20.7326 8.23508 20.4671 9.24381 19.6836 9.71233L19.0779 10.0678C19.4501 11.3362 19.4501 12.6849 19.0779 13.9534L19.6836 14.3088C20.4698 14.7775 20.7356 15.7896 20.2813 16.5842C20.0693 16.9643 19.7132 17.2431 19.2932 17.3575C18.8732 17.4719 18.4248 17.4123 18.0493 17.1921L17.3991 16.8104C16.5058 17.7237 15.3748 18.369 14.134 18.6732V19.4926C14.1497 20.0866 13.8418 20.6423 13.3299 20.9439C12.818 21.2455 12.1827 21.2455 11.6708 20.9439C11.1589 20.6423 10.851 20.0866 10.8667 19.4926V18.6732C9.62656 18.3694 8.49605 17.725 7.60277 16.8127L6.9525 17.1944C6.57683 17.414 6.12854 17.4731 5.70881 17.3583C5.28907 17.2434 4.93327 16.9644 4.7217 16.5842C4.27039 15.7906 4.5359 14.7819 5.3194 14.3134L5.9251 13.9579C5.55291 12.6895 5.55291 11.3408 5.9251 10.0723L5.3194 9.71691C4.5332 9.2482 4.26735 8.23611 4.7217 7.44154C4.93366 7.06135 5.28984 6.78258 5.70982 6.66818C6.12979 6.55378 6.57815 6.61339 6.95364 6.83356L7.60391 7.21526C8.49677 6.30172 9.62732 5.65609 10.8678 5.35131V4.53305Z" stroke="#1E2027" stroke-width="1.4" stroke-linecap="round" stroke-linejoin="round"/>
</svg>
