<svg width="24" height="24" viewBox="0 0 24 24" fill="none" xmlns="http://www.w3.org/2000/svg">
<path fill-rule="evenodd" clip-rule="evenodd" d="M2.25 7C2.25 6.0335 3.0335 5.25 4 5.25H20C20.9665 5.25 21.75 6.0335 21.75 7V17C21.75 17.9665 20.9665 18.75 20 18.75H4C3.0335 18.75 2.25 17.9665 2.25 17V7ZM4 6.75C3.86193 6.75 3.75 6.86193 3.75 7V17C3.75 17.1381 3.86193 17.25 4 17.25H20C20.1381 17.25 20.25 17.1381 20.25 17V7C20.25 6.86193 20.1381 6.75 20 6.75H4Z" fill="black"/>
<path fill-rule="evenodd" clip-rule="evenodd" d="M2.92107 6.02322C3.18439 5.70347 3.65706 5.65773 3.9768 5.92105L11.8411 12.3975C11.9334 12.4735 12.0666 12.4735 12.1589 12.3975L20.0232 5.92105C20.343 5.65773 20.8157 5.70347 21.079 6.02322C21.3423 6.34296 21.2965 6.81563 20.9768 7.07895L15.0823 11.9333L20.9845 16.9275C21.3007 17.195 21.3401 17.6683 21.0726 17.9845C20.805 18.3007 20.3318 18.3401 20.0156 18.0725L13.9054 12.9024L13.1125 13.5554C12.4663 14.0876 11.5337 14.0876 10.8875 13.5554L10.0946 12.9024L3.98448 18.0725C3.66827 18.3401 3.19504 18.3007 2.92748 17.9845C2.65992 17.6683 2.69936 17.195 3.01556 16.9275L8.91778 11.9333L3.02324 7.07895C2.7035 6.81563 2.65775 6.34296 2.92107 6.02322Z" fill="black"/>
</svg>
