<svg width="24" height="24" viewBox="0 0 24 24" fill="none" xmlns="http://www.w3.org/2000/svg">
<path fill-rule="evenodd" clip-rule="evenodd" d="M14 4.32118C12.7574 4.32118 11.75 5.32854 11.75 6.57118C11.75 7.81382 12.7574 8.82118 14 8.82118C15.2426 8.82118 16.25 7.81382 16.25 6.57118C16.25 5.32854 15.2426 4.32118 14 4.32118ZM10.25 6.57118C10.25 4.50011 11.9289 2.82118 14 2.82118C16.0711 2.82118 17.75 4.50011 17.75 6.57118C17.75 8.64225 16.0711 10.3212 14 10.3212C11.9289 10.3212 10.25 8.64225 10.25 6.57118Z" fill="black"/>
<path fill-rule="evenodd" clip-rule="evenodd" d="M6.25 16.5712C6.25 13.3955 8.82436 10.8212 12 10.8212H16C19.1756 10.8212 21.75 13.3955 21.75 16.5712V18.5712C21.75 20.09 20.5188 21.3212 19 21.3212H9C7.48122 21.3212 6.25 20.09 6.25 18.5712V16.5712ZM12 12.3212C9.65279 12.3212 7.75 14.224 7.75 16.5712V18.5712C7.75 19.2615 8.30964 19.8212 9 19.8212H19C19.6904 19.8212 20.25 19.2615 20.25 18.5712V16.5712C20.25 14.224 18.3472 12.3212 16 12.3212H12Z" fill="black"/>
<path fill-rule="evenodd" clip-rule="evenodd" d="M3.25 8C3.25 7.58579 3.58579 7.25 4 7.25H8C8.41421 7.25 8.75 7.58579 8.75 8C8.75 8.41421 8.41421 8.75 8 8.75H4C3.58579 8.75 3.25 8.41421 3.25 8Z" fill="black"/>
<path fill-rule="evenodd" clip-rule="evenodd" d="M6 5.25C6.41421 5.25 6.75 5.58579 6.75 6L6.75 10C6.75 10.4142 6.41421 10.75 6 10.75C5.58579 10.75 5.25 10.4142 5.25 10L5.25 6C5.25 5.58579 5.58579 5.25 6 5.25Z" fill="black"/>
</svg>
