<svg width="24" height="24" viewBox="0 0 24 24" fill="none" xmlns="http://www.w3.org/2000/svg">
<path fill-rule="evenodd" clip-rule="evenodd" d="M5.78859 15.017C6.07328 15.3586 6.19175 15.8089 6.11202 16.2463C5.98387 16.9494 5.8478 17.5978 5.71945 18.1634C6.43777 17.9297 7.10401 17.6038 7.656 17.2828C8.0423 17.0581 8.50867 17.0174 8.92808 17.1717C9.86109 17.5149 10.8997 17.7084 12 17.7084C16.389 17.7084 19.5 14.7485 19.5 11.6042C19.5 8.45993 16.389 5.5 12 5.5C7.61099 5.5 4.5 8.45993 4.5 11.6042C4.5 12.8463 4.95902 14.0217 5.78859 15.017ZM5.30825 19.8276C4.79109 19.9399 4.04901 20.0057 3.5 20C3.5 20 3.87491 19.4244 4.10217 18.489C4.26643 17.8129 4.4593 16.9486 4.63633 15.9774C3.60539 14.7404 3 13.232 3 11.6042C3 7.40452 7.02944 4 12 4C16.9706 4 21 7.40452 21 11.6042C21 15.8039 16.9706 19.2084 12 19.2084C10.7239 19.2084 9.5099 18.984 8.41015 18.5794C7.61436 19.0423 6.52344 19.564 5.30825 19.8276Z" fill="black"/>
</svg>
