<svg width="24" height="24" viewBox="0 0 24 24" fill="none" xmlns="http://www.w3.org/2000/svg">
<path fill-rule="evenodd" clip-rule="evenodd" d="M19.4437 9.82167C18.8888 9.20034 18.0166 8.75 16.7702 8.75C16.356 8.75 16.0202 8.41421 16.0202 8C16.0202 7.58579 16.356 7.25 16.7702 7.25C18.4089 7.25 19.7005 7.85735 20.5625 8.82256C21.4143 9.77638 21.8041 11.032 21.7439 12.2673C21.6837 13.505 21.1707 14.7489 20.184 15.6838C19.1908 16.6249 17.7621 17.2115 15.9459 17.2115H12.7777L14.0102 18.4766C14.2992 18.7733 14.293 19.2482 13.9963 19.5372C13.6996 19.8263 13.2248 19.82 12.9357 19.5234L10.4628 16.9849C10.1791 16.6937 10.1791 16.2294 10.4628 15.9382L12.9357 13.3997C13.2248 13.103 13.6996 13.0968 13.9963 13.3859C14.293 13.6749 14.2992 14.1497 14.0102 14.4464L12.7777 15.7115H15.9459C17.4269 15.7115 18.4712 15.2404 19.1523 14.595C19.8401 13.9434 20.203 13.0719 20.2457 12.1943C20.2886 11.3141 20.0087 10.4544 19.4437 9.82167Z" fill="black"/>
<path fill-rule="evenodd" clip-rule="evenodd" d="M4.55631 14.1783C5.11116 14.7997 5.98335 15.25 7.22977 15.25C7.64398 15.25 7.97977 15.5858 7.97977 16C7.97977 16.4142 7.64398 16.75 7.22977 16.75C5.59108 16.75 4.29943 16.1427 3.43749 15.1774C2.58572 14.2236 2.19586 12.968 2.25603 11.7327C2.31632 10.495 2.82925 9.25106 3.81592 8.31616C4.80913 7.37506 6.23784 6.78846 8.05408 6.78846L11.2223 6.78846L9.98982 5.52335C9.70078 5.22666 9.70699 4.75182 10.0037 4.46278C10.3004 4.17374 10.7752 4.17995 11.0643 4.47665L13.5372 7.01511C13.8209 7.30634 13.8209 7.77059 13.5372 8.06182L11.0643 10.6003C10.7752 10.897 10.3004 10.9032 10.0037 10.6141C9.70699 10.3251 9.70078 9.85027 9.98982 9.55357L11.2223 8.28846H8.05408C6.57306 8.28846 5.52882 8.75956 4.84763 9.405C4.15991 10.0566 3.797 10.9281 3.75425 11.8057C3.71138 12.6859 3.99128 13.5456 4.55631 14.1783Z" fill="black"/>
</svg>
