<svg width="24" height="24" viewBox="0 0 24 24" fill="none" xmlns="http://www.w3.org/2000/svg">
<path d="M5.12822 16.067C5.1548 15.9212 5.11531 15.7711 5.02042 15.6573C4.0566 14.5008 3.5 13.1035 3.5 11.6042C3.5 7.75632 7.22329 4.5 12 4.5C16.7767 4.5 20.5 7.75632 20.5 11.6042C20.5 15.4521 16.7767 18.7084 12 18.7084C10.7825 18.7084 9.62696 18.4943 8.58279 18.1102C8.44299 18.0587 8.28753 18.0723 8.15876 18.1472C7.19795 18.706 5.83133 19.3296 4.3686 19.4706C4.40685 19.3268 4.44971 19.1622 4.49593 18.979C4.67874 18.2546 4.91482 17.2379 5.12822 16.067Z" fill="black" stroke="black" stroke-linecap="round" stroke-linejoin="round"/>
</svg>
