<svg width="24" height="24" viewBox="0 0 24 24" fill="none" xmlns="http://www.w3.org/2000/svg">
<path fill-rule="evenodd" clip-rule="evenodd" d="M11 4.75C10.3096 4.75 9.75 5.30964 9.75 6V15C9.75 15.6904 10.3096 16.25 11 16.25H17C17.6904 16.25 18.25 15.6904 18.25 15V8.5H19.75V15C19.75 16.5188 18.5188 17.75 17 17.75H11C9.48122 17.75 8.25 16.5188 8.25 15V6C8.25 4.48122 9.48122 3.25 11 3.25H15V4.75H11Z" fill="black"/>
<path fill-rule="evenodd" clip-rule="evenodd" d="M14.7335 3.29896C15.0245 3.1883 15.3537 3.269 15.5606 3.50173L19.5606 8.00173C19.7568 8.22247 19.8052 8.53782 19.6842 8.80724C19.5632 9.07667 19.2953 9.25 19 9.25H15C14.5858 9.25 14.25 8.91422 14.25 8.5V4C14.25 3.68862 14.4424 3.40962 14.7335 3.29896ZM15.75 5.97265V7.75H17.3299L15.75 5.97265Z" fill="black"/>
<path fill-rule="evenodd" clip-rule="evenodd" d="M7 7.75C6.30964 7.75 5.75 8.30964 5.75 9V18C5.75 18.6904 6.30964 19.25 7 19.25H13C13.6904 19.25 14.25 18.6904 14.25 18V16.5H15.75V18C15.75 19.5188 14.5188 20.75 13 20.75H7C5.48122 20.75 4.25 19.5188 4.25 18V9C4.25 7.48122 5.48122 6.25 7 6.25H9V7.75H7Z" fill="black"/>
</svg>
