<svg width="24" height="24" viewBox="0 0 24 24" fill="none" xmlns="http://www.w3.org/2000/svg">
<path d="M6.89724 10.4C6.25011 10.4 5.62046 10.52 5.0258 10.7686C4.43113 11.0086 3.88894 11.36 3.43419 11.8057C2.97945 12.2514 2.6209 12.7829 2.37604 13.3657C2.13118 13.9486 2 14.5743 2 15.2V17.1971C2 17.5657 2.06996 17.9257 2.21863 18.2686C2.35855 18.6114 2.56843 18.92 2.83953 19.1771C3.10188 19.4343 3.4167 19.64 3.76651 19.7857C4.11631 19.9229 4.4836 20 4.85964 20H7.64058C7.28203 19.8286 7.0634 19.5714 6.87101 19.2457C6.52121 18.6714 6.32007 18.0114 6.25885 17.3429C6.08395 15.4143 6.45125 13.9314 6.73983 13.0314C6.99344 12.2343 7.44818 11.5057 8.12156 11C8.47136 10.7429 8.87363 10.5371 9.2934 10.4C10.1679 10.1171 6.89724 10.4 6.89724 10.4Z" fill="#8E8F93"/>
<path d="M9.95802 6.39714C9.95802 5.71143 9.67818 5.04286 9.17971 4.56286C8.68124 4.07429 8.00787 3.8 7.30826 3.8C6.60866 3.8 5.92654 4.07429 5.43682 4.56286C4.93835 5.05143 4.6585 5.71143 4.6585 6.39714C4.6585 7.08286 4.93835 7.75143 5.43682 8.23143C5.93529 8.72 6.60866 8.99429 7.30826 8.99429C8.00787 8.99429 8.68999 8.72 9.17971 8.23143C9.67818 7.74286 9.95802 7.08286 9.95802 6.39714ZM6.08395 6.38C6.08395 6.38 6.08395 6.44 6.0927 6.47429C6.0927 6.44857 6.07521 6.43143 6.07521 6.40571C6.07521 6.40571 6.07521 6.38857 6.07521 6.38H6.08395ZM6.18889 6.87714C6.18889 6.87714 6.1714 6.81714 6.16266 6.79143C6.1714 6.81714 6.18015 6.85143 6.18889 6.87714Z" fill="#8E8F93"/>
<path d="M12.4329 7.97429C12.7652 8.3 13.1587 8.55714 13.5872 8.73714C14.0157 8.91714 14.488 9.00286 14.9515 9.00286C15.415 9.00286 15.8872 8.90857 16.3157 8.73714C16.753 8.55714 17.1465 8.3 17.47 7.97429C17.7936 7.64857 18.0647 7.26286 18.2484 6.84286C18.432 6.41429 18.5195 5.96 18.5195 5.50571C18.5195 4.58 18.1434 3.68857 17.47 3.02857C16.7967 2.36857 15.8959 2 14.9427 2C13.9895 2 13.0888 2.36857 12.4154 3.02857C11.742 3.68857 11.366 4.57143 11.366 5.50571C11.366 5.96857 11.4622 6.42286 11.6371 6.84286C11.812 7.26286 12.0831 7.65714 12.4154 7.97429H12.4329Z" fill="#8E8F93"/>
<path d="M20.5658 11.8057C19.6476 10.9057 18.4058 10.4 17.1028 10.4H13.0188C11.7158 10.4 10.474 10.9057 9.55575 11.8057C8.63752 12.7057 8.12156 13.9229 8.12156 15.2V17.1971C8.12156 17.9429 8.41889 18.6543 8.96108 19.1771C9.49453 19.7 10.2204 20 10.9812 20H19.1404C19.5164 20 19.8837 19.9314 20.2335 19.7857C20.5833 19.6486 20.8981 19.4429 21.1605 19.1771C21.4228 18.92 21.6327 18.6114 21.7814 18.2686C21.9213 17.9257 22 17.5657 22 17.1971V15.2C22 13.9229 21.484 12.7057 20.5658 11.8057Z" fill="#8E8F93"/>
</svg>
