<svg width="24" height="24" viewBox="0 0 24 24" fill="none" xmlns="http://www.w3.org/2000/svg">
<path fill-rule="evenodd" clip-rule="evenodd" d="M6 3.75C5.86193 3.75 5.75 3.86193 5.75 4V7.02273C5.75 7.09848 5.78435 7.17015 5.8434 7.2176L10.7529 11.1628V19.4416C10.7529 19.6238 10.9415 19.7448 11.1071 19.6689L13.1071 18.7522C13.196 18.7115 13.2529 18.6227 13.2529 18.525V11.1631L18.1629 7.2176C18.2219 7.17015 18.2563 7.09848 18.2563 7.02273V4C18.2563 3.86193 18.1443 3.75 18.0063 3.75H6ZM4.25 4C4.25 3.0335 5.0335 2.25 6 2.25H18.0063C18.9728 2.25 19.7563 3.0335 19.7563 4V7.02273C19.7563 7.55301 19.5158 8.0547 19.1024 8.38687L14.7529 11.882V18.525C14.7529 19.2092 14.3541 19.8307 13.7321 20.1158L11.7321 21.0325C10.5729 21.5638 9.25293 20.7168 9.25293 19.4416V11.8817L4.90382 8.38687C4.49045 8.0547 4.25 7.55301 4.25 7.02273V4Z" fill="black"/>
</svg>
