<svg width="24" height="24" viewBox="0 0 24 24" fill="none" xmlns="http://www.w3.org/2000/svg">
<path fill-rule="evenodd" clip-rule="evenodd" d="M3.25 4.5C3.25 3.80964 3.80964 3.25 4.5 3.25H16.5C17.1924 3.25 17.75 3.81271 17.75 4.50104V13.5H16.25V4.75H4.75V19.25H17V20.75H4.5C3.80965 20.75 3.25 20.1904 3.25 19.5V4.5Z" fill="#1E2027"/>
<path d="M6 7.5C6 7.22386 6.22386 7 6.5 7H9.35641C9.63256 7 9.85641 7.22386 9.85641 7.5V7.53572C9.85641 7.81186 9.63256 8.03572 9.35641 8.03572H6.5C6.22386 8.03572 6 7.81186 6 7.53572V7.5Z" fill="#1E2027"/>
<path d="M11.1415 7.5C11.1415 7.22386 11.3654 7 11.6415 7H14.4979C14.7741 7 14.9979 7.22386 14.9979 7.5V7.53572C14.9979 7.81186 14.7741 8.03572 14.4979 8.03572H11.6415C11.3654 8.03572 11.1415 7.81186 11.1415 7.53572V7.5Z" fill="#1E2027"/>
<path d="M6 9.57144C6 9.2953 6.22386 9.07144 6.5 9.07144H9.37425C9.65039 9.07144 9.87425 9.2953 9.87425 9.57144V9.60716C9.87425 9.8833 9.65039 10.1072 9.37425 10.1072H6.5C6.22386 10.1072 6 9.8833 6 9.60716V9.57144Z" fill="#1E2027"/>
<path d="M11.1655 9.57144C11.1655 9.2953 11.3894 9.07144 11.6655 9.07144H14.5398C14.8159 9.07144 15.0398 9.2953 15.0398 9.57144V9.60716C15.0398 9.8833 14.8159 10.1072 14.5398 10.1072H11.6655C11.3894 10.1072 11.1655 9.8833 11.1655 9.60716V9.57144Z" fill="#1E2027"/>
<path d="M6 11.6429C6 11.3667 6.22386 11.1429 6.5 11.1429H9.37425C9.65039 11.1429 9.87425 11.3667 9.87425 11.6429V11.6786C9.87425 11.9547 9.65039 12.1786 9.37425 12.1786H6.5C6.22386 12.1786 6 11.9547 6 11.6786V11.6429Z" fill="#1E2027"/>
<path d="M11.1655 11.6429C11.1655 11.3667 11.3894 11.1429 11.6655 11.1429H14.5398C14.8159 11.1429 15.0398 11.3667 15.0398 11.6429V11.6786C15.0398 11.9547 14.8159 12.1786 14.5398 12.1786H11.6655C11.3894 12.1786 11.1655 11.9547 11.1655 11.6786V11.6429Z" fill="#1E2027"/>
<path d="M6 13.7143C6 13.4381 6.22386 13.2143 6.5 13.2143H9.37425C9.65039 13.2143 9.87425 13.4381 9.87425 13.7143V13.75C9.87425 14.0261 9.65039 14.25 9.37425 14.25H6.5C6.22386 14.25 6 14.0261 6 13.75V13.7143Z" fill="#1E2027"/>
<path d="M11.1655 13.7143C11.1655 13.4381 11.3894 13.2143 11.6655 13.2143H14.5398C14.8159 13.2143 15.0398 13.4381 15.0398 13.7143V13.75C15.0398 14.0261 14.8159 14.25 14.5398 14.25H11.6655C11.3894 14.25 11.1655 14.0261 11.1655 13.75V13.7143Z" fill="#1E2027"/>
<path fill-rule="evenodd" clip-rule="evenodd" d="M15.25 14.5C15.25 13.8096 15.8096 13.25 16.5 13.25H19.5C20.1904 13.25 20.75 13.8096 20.75 14.5V19.5C20.75 20.1904 20.1904 20.75 19.5 20.75H16.5C15.8096 20.75 15.25 20.1904 15.25 19.5V14.5ZM16.75 14.75V19.25H19.25V14.75H16.75Z" fill="#1E2027"/>
<path d="M17.25 15.75C17.25 15.5429 17.4179 15.375 17.625 15.375H18.375C18.5821 15.375 18.75 15.5429 18.75 15.75C18.75 15.9571 18.5821 16.125 18.375 16.125H17.625C17.4179 16.125 17.25 15.9571 17.25 15.75Z" fill="#1E2027"/>
<path d="M17.25 17.25C17.25 17.0429 17.4179 16.875 17.625 16.875H18.375C18.5821 16.875 18.75 17.0429 18.75 17.25C18.75 17.4571 18.5821 17.625 18.375 17.625H17.625C17.4179 17.625 17.25 17.4571 17.25 17.25Z" fill="#1E2027"/>
</svg>
