<svg width="24" height="24" viewBox="0 0 24 24" fill="none" xmlns="http://www.w3.org/2000/svg">
<path fill-rule="evenodd" clip-rule="evenodd" d="M4.5 4C4.22386 4 4 4.22386 4 4.5V19.5C4 19.7761 4.22386 20 4.5 20H19.5C19.7761 20 20 19.7761 20 19.5V14.5C20 14.2239 19.7761 14 19.5 14H17V4.5C17 4.22386 16.7761 4 16.5 4H4.5ZM17 15.5C17 15.2239 17.2239 15 17.5 15H18.5C18.7761 15 19 15.2239 19 15.5C19 15.7761 18.7761 16 18.5 16H17.5C17.2239 16 17 15.7761 17 15.5ZM17 17.5C17 17.7761 17.2239 18 17.5 18H18.5C18.7761 18 19 17.7761 19 17.5C19 17.2239 18.7761 17 18.5 17H17.5C17.2239 17 17 17.2239 17 17.5ZM6.5 7C6.22386 7 6 7.22386 6 7.5V7.53572C6 7.81186 6.22386 8.03572 6.5 8.03572H9.37425C9.65039 8.03572 9.87425 7.81186 9.87425 7.53572V7.5C9.87425 7.22386 9.65039 7 9.37425 7H6.5ZM11.1655 7.5C11.1655 7.22386 11.3894 7 11.6655 7H14.5398C14.8159 7 15.0398 7.22386 15.0398 7.5V7.53572C15.0398 7.81186 14.8159 8.03572 14.5398 8.03572H11.6655C11.3894 8.03572 11.1655 7.81186 11.1655 7.53572V7.5ZM6.5 9.07144C6.22386 9.07144 6 9.2953 6 9.57144V9.60716C6 9.8833 6.22386 10.1072 6.5 10.1072H9.37425C9.65039 10.1072 9.87425 9.8833 9.87425 9.60716V9.57144C9.87425 9.2953 9.65039 9.07144 9.37425 9.07144H6.5ZM11.1655 9.57144C11.1655 9.2953 11.3894 9.07144 11.6655 9.07144H14.5398C14.8159 9.07144 15.0398 9.2953 15.0398 9.57144V9.60716C15.0398 9.8833 14.8159 10.1072 14.5398 10.1072H11.6655C11.3894 10.1072 11.1655 9.8833 11.1655 9.60716V9.57144ZM6.5 11.1429C6.22386 11.1429 6 11.3667 6 11.6429V11.6786C6 11.9547 6.22386 12.1786 6.5 12.1786H9.37425C9.65039 12.1786 9.87425 11.9547 9.87425 11.6786V11.6429C9.87425 11.3667 9.65039 11.1429 9.37425 11.1429H6.5ZM11.1655 11.6429C11.1655 11.3667 11.3894 11.1429 11.6655 11.1429H14.5398C14.8159 11.1429 15.0398 11.3667 15.0398 11.6429V11.6786C15.0398 11.9547 14.8159 12.1786 14.5398 12.1786H11.6655C11.3894 12.1786 11.1655 11.9547 11.1655 11.6786V11.6429ZM6.5 13.2143C6.22386 13.2143 6 13.4381 6 13.7143V13.75C6 14.0261 6.22386 14.25 6.5 14.25H9.37425C9.65039 14.25 9.87425 14.0261 9.87425 13.75V13.7143C9.87425 13.4381 9.65039 13.2143 9.37425 13.2143H6.5ZM11.1655 13.7143C11.1655 13.4381 11.3894 13.2143 11.6655 13.2143H14.5398C14.8159 13.2143 15.0398 13.4381 15.0398 13.7143V13.75C15.0398 14.0261 14.8159 14.25 14.5398 14.25H11.6655C11.3894 14.25 11.1655 14.0261 11.1655 13.75V13.7143Z" fill="#1E2027"/>
</svg>
