<svg width="24" height="24" viewBox="0 0 24 24" fill="none" xmlns="http://www.w3.org/2000/svg">
<path fill-rule="evenodd" clip-rule="evenodd" d="M16.4692 13.5C17.2977 13.5 17.9692 12.8284 17.9692 12C17.9692 11.1716 17.2977 10.5 16.4692 10.5C15.6408 10.5 14.9692 11.1716 14.9692 12C14.9692 12.8284 15.6408 13.5 16.4692 13.5ZM19.4692 12C19.4692 13.6569 18.1261 15 16.4692 15C14.8124 15 13.4692 13.6569 13.4692 12C13.4692 10.3431 14.8124 9 16.4692 9C18.1261 9 19.4692 10.3431 19.4692 12Z" fill="black"/>
<path fill-rule="evenodd" clip-rule="evenodd" d="M11.2568 16C10.4284 16 9.75684 16.6716 9.75684 17.5C9.75684 18.3284 10.4284 19 11.2568 19C12.0853 19 12.7568 18.3284 12.7568 17.5C12.7568 16.6716 12.0853 16 11.2568 16ZM8.25684 17.5C8.25684 15.8431 9.59998 14.5 11.2568 14.5C12.9137 14.5 14.2568 15.8431 14.2568 17.5C14.2568 19.1569 12.9137 20.5 11.2568 20.5C9.59998 20.5 8.25684 19.1569 8.25684 17.5Z" fill="black"/>
<path fill-rule="evenodd" clip-rule="evenodd" d="M7.53125 5C6.70282 5 6.03125 5.67157 6.03125 6.5C6.03125 7.32843 6.70282 8 7.53125 8C8.35968 8 9.03125 7.32843 9.03125 6.5C9.03125 5.67157 8.35968 5 7.53125 5ZM4.53125 6.5C4.53125 4.84315 5.8744 3.5 7.53125 3.5C9.1881 3.5 10.5312 4.84315 10.5312 6.5C10.5312 8.15685 9.1881 9.5 7.53125 9.5C5.87439 9.5 4.53125 8.15685 4.53125 6.5Z" fill="black"/>
<path fill-rule="evenodd" clip-rule="evenodd" d="M14.3577 11.25H3.75C3.33579 11.25 3 11.5858 3 12C3 12.4142 3.33579 12.75 3.75 12.75H14.3577V11.25ZM19.0722 12.75H20.2505C20.6647 12.75 21.0005 12.4142 21.0005 12C21.0005 11.5858 20.6647 11.25 20.2505 11.25H19.0722V12.75Z" fill="black"/>
<path fill-rule="evenodd" clip-rule="evenodd" d="M13.7211 18.25L20.2505 18.25C20.6647 18.25 21.0005 17.9142 21.0005 17.5C21.0005 17.0858 20.6647 16.75 20.2505 16.75L13.7211 16.75V18.25ZM9.00664 16.75L3.75 16.75C3.33579 16.75 3 17.0858 3 17.5C3 17.9142 3.33579 18.25 3.75 18.25L9.00664 18.25V16.75Z" fill="black"/>
<path fill-rule="evenodd" clip-rule="evenodd" d="M9.64274 7.25L20.2505 7.25C20.6647 7.25 21.0005 6.91421 21.0005 6.5C21.0005 6.08579 20.6647 5.75 20.2505 5.75L9.64274 5.75V7.25ZM4.92833 5.75L3.75003 5.75C3.33581 5.75 3.00003 6.08578 3.00003 6.5C3.00003 6.91421 3.33581 7.25 3.75003 7.25L4.92833 7.25L4.92833 5.75Z" fill="black"/>
</svg>
